# xmcd
#
# Track frame offsets:
#	150
#	14228
#	28012
#	39028
#	51435
#	61430
#	73020
#	83685
#	97386
#	111696
#
# Disc length: 1619 seconds
#
# Revision: 0
# Processed by: cddbd v1.5.2PL0 Copyright (c) Steve Scherf et al.
# Submitted via: audiograbber 1.83.01
#
DISCID=9206510a
DTITLE=Various Artist - Silver Spurs Classic Country Hits Disc 3
DYEAR=1900
DGENRE=Country
TTITLE0=Johnny Paycheck - I'm The Only Hell (Mama Ever Raised)
TTITLE1=Jerry Lee Lewis - Another Place Another Time
TTITLE2=Tom T. Hall (Live) - Fox On The Run
TTITLE3=Moe Bandy - Two Lonely People
TTITLE4=Tex Ritter - Boll Weevil
TTITLE5=Lacy J. Dalton - Hard Times
TTITLE6=Waylon Jennings - Sally Was A Good Girl
TTITLE7=Roy Acuff - When I Lay My Burden Down
TTITLE8=T. Graham Brown - She Couldn't Love Me Anymore
TTITLE9=Jim Reeves - Billy Bayou
EXTD=Disc 3 of 3 disc set
EXTT0=
EXTT1=
EXTT2=
EXTT3=
EXTT4=
EXTT5=
EXTT6=
EXTT7=
EXTT8=
EXTT9=
PLAYORDER=
